<svg data-v-0dd9719b="" version="1.0" xmlns="http://www.w3.org/2000/svg" xmlns:xlink="http://www.w3.org/1999/xlink" width="100%" height="100%" viewBox="0 0 340.000000 250.000000" preserveAspectRatio="xMidYMid meet" color-interpolation-filters="sRGB" style="margin: auto;"> <rect data-v-0dd9719b="" x="0" y="0" width="100%" height="100%" fill="#fff" fill-opacity="1" class="background"></rect> <rect data-v-0dd9719b="" x="0" y="0" width="100%" height="100%" fill="url(#watermark)" fill-opacity="1" class="watermarklayer"></rect> <g data-v-0dd9719b="" fill="#056fb8" class="icon-text-wrapper icon-svg-group iconsvg" transform="translate(47.844993591308594,94.54623794555664)"><g class="iconsvg-imagesvg" transform="translate(0,0)"><g><rect fill="#056fb8" fill-opacity="0" stroke-width="2" x="0" y="0" width="60" height="60.907522078976754" class="image-rect"></rect> <svg x="0" y="0" width="60" height="60.907522078976754" filtersec="colorsb9526701448" class="image-svg-svg primary" style="overflow: visible;"><svg xmlns="http://www.w3.org/2000/svg" viewBox="-0.055003028362989426 -0.08688876777887344 143.22000122070312 145.3868865966797"><defs><linearGradient id="a24fa4329-0fc9-4674-9fd2-c9ba24264c7d" x1="58.31" y1="49.98" x2="58.31" y2="439.45" gradientUnits="userSpaceOnUse"><stop offset="0" stop-color="#056fb8"></stop><stop offset="1" stop-color="#2ea6df"></stop></linearGradient><linearGradient id="b02895fab-fd6d-4118-8760-c35508fbb507" x1="33.47" y1="3.62" x2="33.47" y2="582.55" gradientUnits="userSpaceOnUse"><stop offset="0" stop-color="#056fb8"></stop><stop offset="1" stop-color="#2ea6df"></stop></linearGradient><linearGradient id="cbbfbfaf9-6c44-4d67-8a66-d1dd2f6d37f3" x1="84.36" y1="49.98" x2="84.36" y2="439.45" gradientUnits="userSpaceOnUse"><stop offset="0" stop-color="#056fb8"></stop><stop offset="1" stop-color="#2ea6df"></stop></linearGradient><linearGradient id="d96af4d4a-93fe-4050-8d09-4f5db9684f6f" x1="109.19" y1="3.62" x2="109.19" y2="582.55" gradientUnits="userSpaceOnUse"><stop offset="0" stop-color="#056fb8"></stop><stop offset="1" stop-color="#2ea6df"></stop></linearGradient></defs><g><g><path fill="url(#a24fa4329-0fc9-4674-9fd2-c9ba24264c7d)" d="M66.47 51.33l-16.32 9.42v84.55h16.32V51.33z"></path><path fill="url(#b02895fab-fd6d-4118-8760-c35508fbb507)" d="M40.49 66.33l-14.03 8.1v70.87h14.03V66.33z"></path><path fill="url(#cbbfbfaf9-6c44-4d67-8a66-d1dd2f6d37f3)" d="M92.52 60.75L76.2 51.33v93.97h16.32V60.75z"></path><path fill="url(#d96af4d4a-93fe-4050-8d09-4f5db9684f6f)" d="M116.21 74.43l-14.03-8.1v78.97h14.03V74.43z"></path><path d="M17 94.48a59.16 59.16 0 1 1 109.11 0v23.43a71.61 71.61 0 1 0-109.11 0z" fill="#056fb8"></path></g></g></svg></svg> <!----></g></g> <g transform="translate(67,12.518760681152344)"><g data-gra="path-name" fill-rule="" class="tp-name iconsvg-namesvg"><g transform="scale(1)"><g><path d="M2.65 0L13.92 0C22.63 0 25-3.09 25-8.11 25-11.8 23.11-13.6 20.22-14.53L20.22-14.69C23.27-15.53 24.28-17.37 24.28-20.26 24.28-25.28 21.83-27.85 13.04-27.85L2.65-27.85ZM10.63-16.89L10.63-21.59 12.12-21.59C15.13-21.59 16.33-21.27 16.33-19.3 16.33-17.21 15.13-16.89 12.12-16.89ZM10.63-6.3L10.63-11.36 12.72-11.36C16.01-11.36 16.93-10.67 16.93-8.75 16.93-6.78 15.97-6.3 12.72-6.3ZM49.35-12.24C49.35-18.86 47.27-22.07 39.56-22.07 32.38-22.07 28.21-19.74 28.21-10.83 28.21-1.93 32.38 0.4 39.2 0.4 43.5 0.4 46.95-0.4 48.27-1.32L48.27-6.94C46.99-6.18 43.66-5.38 40.73-5.38 37.96-5.38 36.23-6.14 35.79-8.02L49.11-8.83C49.23-9.15 49.35-10.47 49.35-12.24ZM35.75-13.2C35.91-15.89 37.04-16.49 39.6-16.49 42.01-16.49 42.61-15.37 42.61-13.72ZM65.08-15.81L65.08-21.67 61.23-21.67 61.23-26.8 53.61-26.8 53.61-21.67 51.04-21.67 51.04-15.81 53.61-15.81 53.61-7.14C53.61-1.48 55.61 0.24 61.39 0.24 62.35 0.24 63.64 0.16 64.48 0.04L64.48-5.66C64.12-5.54 63.68-5.58 63.24-5.58 61.67-5.58 61.23-5.98 61.23-7.86L61.23-15.81ZM94.41-22.07C90.84-22.07 88.72-21.15 87.63-19.42 86.55-21.31 84.66-22.07 81.57-22.07 78.08-22.07 76.52-20.99 75.56-19.46L75.56-21.67 67.93-21.67 67.93 0 75.56 0 75.56-14.08C75.76-15.25 76.28-16.05 78.24-16.05 79.97-16.05 80.93-15.61 80.93-12.92L80.93 0 88.56 0 88.56-13.56C88.84-15.13 89.44-16.05 91.52-16.05 93.33-16.05 94.17-15.61 94.17-12.92L94.17 0 101.8 0 101.8-13.92C101.8-20.18 99.15-22.07 94.41-22.07ZM115.84-22.03C114.28-22.03 111.95-21.95 110.3-21.67L110.3-15.29C111.71-15.53 113.19-15.65 114.76-15.65 117.93-15.65 118.73-15.33 118.85-13.12L114.4-13.12C108.1-13.12 105.25-11.28 105.25-6.3 105.25-1.65 108.1 0.4 112.63 0.4 116.44 0.4 118.29-0.92 118.93-2.01L119.53 0 126.43 0 126.43-14.73C126.43-19.78 123.42-22.03 115.84-22.03ZM115.04-5.26C113.47-5.26 112.63-5.54 112.63-6.66 112.63-7.94 113.39-8.31 115.8-8.31L118.85-8.31 118.85-6.62C118.25-5.86 116.92-5.26 115.04-5.26ZM145.73-22.07C142.2-22.07 140.12-20.95 139.03-19.46L139.03-21.67 131.41-21.67 131.41 0 139.03 0 139.03-14.28C139.35-15.37 140.2-16.05 142.12-16.05 144.53-16.05 145.21-15.61 145.21-12.92L145.21 0 152.84 0 152.84-14.65C152.84-19.9 150.83-22.07 145.73-22.07ZM158.37 8.02C166.76 8.02 169.57 6.54 173.1-2.97L179.96-21.67 171.61-21.67 167.92-8.15 167.68-8.15 163.67-21.67 155.16-21.67 163.43-0.28C163.11 0.84 161.9 1.4 158.37 1.4Z" transform="translate(-2.6500000953674316, 27.850000381469727)"></path></g> <!----> <!----> <!----> <!----> <!----> <!----> <!----></g></g> <!----></g></g><defs v-gra="od"></defs></svg>